<svg xmlns="http://www.w3.org/2000/svg" width="16" height="16" viewBox="0 0 16 16">
    <g fill="none" fill-rule="evenodd">
        <path d="M0 0H16V16H0z"/>
        <path fill="#fff" fill-rule="nonzero" d="M5.2 1.333h5.6c2.133 0 3.867 1.734 3.867 3.867v5.6c0 2.136-1.731 3.867-3.867 3.867H5.2c-2.133 0-3.867-1.734-3.867-3.867V5.2c0-2.136 1.731-3.867 3.867-3.867m-.133 1.334c-1.326 0-2.4 1.074-2.4 2.4v5.866c0 1.327 1.073 2.4 2.4 2.4h5.866c1.326 0 2.4-1.074 2.4-2.4V5.067c0-1.327-1.073-2.4-2.4-2.4H5.067m6.433 1c.46 0 .833.373.833.833 0 .46-.373.833-.833.833-.46 0-.833-.373-.833-.833 0-.46.373-.833.833-.833m-3.5 1c1.84 0 3.333 1.492 3.333 3.333 0 1.84-1.492 3.333-3.333 3.333-1.84 0-3.333-1.492-3.333-3.333 0-1.84 1.492-3.333 3.333-3.333M8 6c-1.105 0-2 .895-2 2s.895 2 2 2 2-.895 2-2-.895-2-2-2z"/>
    </g>
</svg>
