<?xml version="1.0" encoding="UTF-8"?>
<svg width="212px" height="49px" viewBox="0 0 212 49" version="1.1" xmlns="http://www.w3.org/2000/svg" xmlns:xlink="http://www.w3.org/1999/xlink">
    <!-- Generator: Sketch 64 (93537) - https://sketch.com -->
    <title>danbee_logo_mouth</title>
    <desc>Created with Sketch.</desc>
    <g id="랜딩개선" stroke="none" stroke-width="1" fill="none" fill-rule="evenodd">
        <g id="asset" transform="translate(-253.000000, -33.000000)" fill-rule="nonzero">
            <g id="danbee_logo_mouth" transform="translate(253.000000, 33.000000)">
                <path d="M35.71,39.84 C35.85,39.65 35.97,39.46 36.09,39.27 C36.21,39.08 36.5,38.66 36.67,38.35 C36.84,38.04 36.9,37.94 37.01,37.74 C37.12,37.54 37.34,37.12 37.49,36.81 C37.64,36.5 37.68,36.39 37.76,36.17 C37.84,35.95 38.02,35.52 38.14,35.17 C38.26,34.82 38.29,34.77 38.35,34.56 C38.47,34.19 38.56,33.84 38.65,33.47 C38.7,33.3 38.74,33.11 38.79,32.94 C38.8887089,32.4074698 38.9588094,31.8700326 39,31.33 L39,31.33 C39.06,30.78 39.1,30.21 39.11,29.65 C39.11,29.47 39.11,29.28 39.11,29.1 C39.11,28.72 39.11,28.34 39.11,27.95 L39,27.25 C39,26.89 38.91,26.55 38.85,26.19 L38.71,25.5 C38.64,25.15 38.55,24.81 38.46,24.5 C38.37,24.19 38.33,24.04 38.26,23.81 C38.19,23.58 38.03,23.11 37.89,22.75 C37.75,22.39 37.73,22.31 37.64,22.1 C37.48,21.72 37.31,21.34 37.12,20.96 L36.86,20.39 C36.58,19.85 36.28,19.31 35.95,18.78 L35.9,18.71 C35.1341923,17.4798981 34.2714547,16.3128615 33.32,15.22 C28.84,10 24.45,4.45 21.87,1.13 C21.321114,0.415285346 20.471162,-0.00364782673 19.57,-0.00364782673 C18.668838,-0.00364782673 17.818886,0.415285346 17.27,1.13 C14.7,4.45 10.3,10 5.82,15.18 C4.86542304,16.2703513 4.00249224,17.4376491 3.24,18.67 L3.19,18.74 C2.86,19.27 2.56,19.81 2.28,20.35 C2.19,20.52 2.11,20.71 2.02,20.9 C1.83,21.28 1.66,21.66 1.5,22.04 C1.41,22.26 1.32,22.48 1.24,22.7 C1.16,22.92 1,23.4 0.88,23.76 C0.76,24.12 0.74,24.22 0.68,24.45 C0.62,24.68 0.5,25.14 0.43,25.45 L0.29,26.14 C0.23,26.5 0.17,26.84 0.14,27.2 C0.11,27.56 0.08,27.64 0.07,27.85 C0.050051921,28.2364094 0.050051921,28.6235906 0.07,29.01 C0.07,29.19 0.07,29.36 0.07,29.55 C0.0731186519,30.1113901 0.106500426,30.672204 0.17,31.23 L0.17,31.23 C0.23072987,31.7777785 0.320859887,32.3218968 0.44,32.86 C0.477279439,33.0390138 0.524011526,33.2159282 0.58,33.39 C0.67,33.75 0.76,34.12 0.88,34.48 C1,34.84 1.01,34.89 1.08,35.09 C1.15,35.29 1.33,35.75 1.46,36.09 C1.59,36.43 1.65,36.52 1.74,36.72 C1.83,36.92 2.04,37.35 2.21,37.66 C2.38,37.97 2.43,38.07 2.56,38.27 C2.69,38.47 2.94,38.89 3.13,39.19 C3.32,39.49 3.38,39.57 3.51,39.75 C3.74,40.09 4,40.41 4.26,40.75 C4.39,40.9 4.5,41.06 4.63,41.21 C5.02,41.68 5.45,42.14 5.9,42.59 C9.53502833,46.2486415 14.4825815,48.3011199 19.64,48.2900449 C20.19,48.2900449 20.74,48.2900449 21.3,48.21 L21.74,48.21 C22.22,48.15 22.74,48.09 23.19,48 L23.41,48 C23.85,47.9 24.29,47.81 24.73,47.68 L24.73,47.68 C24.8292861,47.659203 24.9263845,47.629069 25.02,47.59 L25.39,47.48 C25.87,47.33 26.34,47.17 26.81,46.98 L27,46.91 C27.52,46.71 28,46.46 28.52,46.21 L28.88,46.02 C29.35,45.76 29.81,45.5 30.26,45.2 C30.2910248,45.1763825 30.3245611,45.1562607 30.36,45.14 C30.83,44.83 31.3,44.48 31.76,44.14 L32.08,43.88 C32.53,43.5 32.98,43.11 33.39,42.69 C33.8,42.27 34.26,41.78 34.66,41.32 C34.79,41.17 34.9,41.01 35.03,40.86 C35.2233333,40.5133333 35.44,40.1733333 35.68,39.84 L35.71,39.84 Z" id="Path" fill="#FABF13"></path>
                <path d="M18,42.29 L12.32,37.71 C12.02,37.49 11.73,37.24 11.46,37 L11,36.58 C10.87,36.45 10.73,36.32 10.62,36.19 C10.479632,36.0449247 10.352463,35.8876368 10.24,35.72 C10.12,35.57 10,35.44 9.89,35.29 C9.77532773,35.1354842 9.66852527,34.9752805 9.57,34.81 L9.26,34.32 C9.17,34.16 9.07,34 8.99,33.84 C8.91,33.68 8.81,33.47 8.73,33.27 C8.65,33.07 8.59,32.95 8.53,32.79 C8.47,32.63 8.4,32.36 8.33,32.15 C8.26,31.94 8.23,31.84 8.19,31.69 C8.15,31.54 8.08,31.19 8.04,30.93 C8,30.67 8.04,30.67 7.97,30.54 C7.91813447,30.1487814 7.89141296,29.7546391 7.89,29.36 C7.89,24.19 11.89,19.88 17.21,18.88 C17.9849801,18.7351192 18.771595,18.6614787 19.56,18.66 C22.9742401,18.6299264 26.2425319,20.0425547 28.56,22.55 C30.26347,24.4097364 31.211964,26.8380236 31.22,29.36 C31.2193108,31.3258156 30.6345706,33.2471048 29.54,34.88 C29.1901511,35.4239529 28.7846327,35.9300129 28.33,36.39 C28.11,36.62 27.87,36.85 27.63,37.07 C25.8189029,38.6434595 23.5806187,39.6425071 21.2,39.94 C20.8002317,39.9934904 20.4453198,40.2229238 20.2324254,40.5654903 C20.0195309,40.9080569 19.9709565,41.3278696 20.1,41.71 L21.1,44.86 L18,42.29 Z" id="Path" fill="#FFFFFF"></path>
                <path d="M23.65,27.2 C23.0203954,27.5727922 22.8122078,28.3853954 23.185,29.015 C23.5577922,29.6446046 24.3703954,29.8527922 25,29.48 C25.3011098,29.3063662 25.5208701,29.020183 25.6108968,28.6844584 C25.7009235,28.3487338 25.6538355,27.9909934 25.48,27.69 C25.31027,27.3739528 25.0174836,27.1420916 24.6709513,27.0493043 C24.324419,26.956517 23.9549473,27.0110522 23.65,27.2 L23.65,27.2 Z" id="Path" fill="#F0BA24"></path>
                <path d="M14.55,27.2 C14.1427172,27.434009 13.8912147,27.8675249 13.8902281,28.3372466 C13.8892473,28.8069684 14.1389319,29.2415339 14.545231,29.4772467 C14.9515301,29.7129594 15.4527172,29.714009 15.86,29.48 C16.1611098,29.3063662 16.3808701,29.020183 16.4708968,28.6844584 C16.5609235,28.3487338 16.5138355,27.9909934 16.34,27.69 C16.1719991,27.3830389 15.8865034,27.1574983 15.548993,27.0651071 C15.2114826,26.972716 14.8509191,27.0214025 14.55,27.2 L14.55,27.2 Z" id="Path" fill="#F0BA24"></path>
                <path d="M123.14,38.3500082 C120.66692,38.3540443 118.435294,36.8668749 117.487018,34.5828188 C116.538742,32.2987626 117.060852,29.6683195 118.809586,27.9195857 C120.558319,26.170852 123.188763,25.6487422 125.472819,26.597018 C127.756875,27.5452938 129.244044,29.7769203 129.240008,32.25 C129.234494,35.6166539 126.506654,38.3444944 123.14,38.3500082 Z M123.14,22.6 C120.916735,22.5951594 118.760713,23.3621376 117.04,24.77 L117.04,15.27 C116.970242,14.3412685 116.196348,13.6233229 115.265,13.6233229 C114.333652,13.6233229 113.559758,14.3412685 113.489995,15.27 L113.489995,32.27 C113.485954,36.1739681 115.834535,39.6957762 119.440171,41.1925642 C123.045806,42.6893521 127.198082,41.8662093 129.960037,39.1071169 C132.721991,36.3480245 133.549439,32.196604 132.05639,28.5894183 C130.563341,24.9822326 127.04397,22.6300021 123.14,22.63 L123.14,22.6 Z" id="Shape" fill="#030047"></path>
                <path d="M80.86,38.3500082 C78.3869203,38.3540443 76.1552938,36.8668749 75.207018,34.5828188 C74.2587422,32.2987626 74.780852,29.6683195 76.5295857,27.9195857 C78.2783195,26.170852 80.9087626,25.6487422 83.1928188,26.597018 C85.4768749,27.5452938 86.9640443,29.7769203 86.9600082,32.25 C86.9544944,35.6166539 84.2266539,38.3444944 80.86,38.3500082 Z M88.74,22.61 C87.7764632,22.6316441 87.0051714,23.416234 87,24.38 L87,24.77 C83.058607,21.5705598 77.313226,21.9677421 73.8495812,25.6790977 C70.3859364,29.3904533 70.3859364,35.1495467 73.8495812,38.8609023 C77.313226,42.5722579 83.058607,42.9694402 87,39.77 L87,40.17 C86.9499795,40.8359495 87.2769293,41.4738677 87.8467588,41.8221278 C88.4165883,42.170388 89.1334117,42.170388 89.7032412,41.8221278 C90.2730707,41.4738677 90.6000205,40.8359495 90.55,40.17 L90.55,24.38 C90.5501217,23.9035535 90.3581593,23.4471774 90.0175177,23.1140638 C89.6768761,22.7809503 89.2163249,22.5992328 88.74,22.61 Z" id="Shape" fill="#030047"></path>
                <path d="M102,22.6 C96.6688321,22.6 92.3455188,26.918835 92.34,32.25 L92.34,32.25 C92.34,32.25 92.34,32.36 92.34,32.42 L92.34,40.12 C92.2899795,40.7859495 92.6169293,41.4238677 93.1867588,41.7721278 C93.7565883,42.120388 94.4734117,42.120388 95.0432412,41.7721278 C95.6130707,41.4238677 95.9400205,40.7859495 95.89,40.12 L95.89,32.42 C95.8953046,32.3634575 95.8953046,32.3065425 95.89,32.25 L95.89,32.25 C95.7993219,30.0099568 96.9426893,27.9001512 98.8689192,26.7531313 C100.795149,25.6061115 103.194851,25.6061115 105.121081,26.7531313 C107.047311,27.9001512 108.190678,30.0099568 108.1,32.25 L108.1,32.25 C108.1,32.25 108.1,32.36 108.1,32.42 L108.1,40.12 C108.04998,40.7859495 108.376929,41.4238677 108.946759,41.7721278 C109.516588,42.120388 110.233412,42.120388 110.803241,41.7721278 C111.373071,41.4238677 111.70002,40.7859495 111.65,40.12 L111.65,32.42 C111.655305,32.3634575 111.655305,32.3065425 111.65,32.25 L111.65,32.25 C111.644488,26.9227369 107.327263,22.6055119 102,22.6 Z" id="Path" fill="#030047"></path>
                <path d="M153.92,32.1 L153.92,32 C153.929848,31.9303464 153.929848,31.8596536 153.92,31.79 C153.712882,27.2641632 150.385185,23.491797 145.920555,22.7216153 C141.455926,21.9514337 137.056652,24.3908404 135.345149,28.5857008 C133.633646,32.7805613 135.070807,37.6012334 138.799939,40.1741063 C142.529071,42.7469793 147.545947,42.379199 150.86,39.29 C151.374186,38.8963911 151.632389,38.2534146 151.533238,37.6135052 C151.434086,36.9735957 150.993409,36.4389077 150.384218,36.2193612 C149.775026,35.9998147 149.094571,36.130458 148.61,36.56 L148.61,36.56 C146.666356,38.4999764 143.667235,38.9049039 141.27871,37.5498369 C138.890185,36.19477 137.699143,33.4126636 138.367233,30.7490356 C139.035324,28.0854076 141.398389,26.194741 144.143697,26.1273404 C146.889005,26.0599398 149.342003,27.8323662 150.14,30.46 L143.67,30.46 C142.741268,30.5297584 142.023323,31.3036523 142.023323,32.235 C142.023323,33.1663477 142.741268,33.9402416 143.67,34.01 L151.93,34.01 C152.950647,34.016769 153.812645,33.2539008 153.93,32.24 L153.93,32.24 L153.93,32.72 C153.940014,32.5568201 153.940014,32.3931799 153.93,32.23 C153.939276,32.1866093 153.935803,32.1414616 153.92,32.1 Z" id="Path" fill="#030047"></path>
                <path d="M59.71,38.3500082 C57.2369203,38.3540443 55.0052938,36.8668749 54.057018,34.5828188 C53.1087422,32.2987626 53.630852,29.6683195 55.3795857,27.9195857 C57.1283195,26.170852 59.7587626,25.6487422 62.0428188,26.597018 C64.3268749,27.5452938 65.8140443,29.7769203 65.8100082,32.25 C65.7990231,35.6143797 63.0743797,38.3390231 59.71,38.3500082 Z M67.59,13.5 C66.6108252,13.5 65.815501,14.2908406 65.81,15.27 L65.81,24.77 C62.3137848,21.9178425 57.3079061,21.8690867 53.756801,24.6526052 C50.2056959,27.4361236 49.0574389,32.3087722 50.9920178,36.3850116 C52.9265966,40.461251 57.4275171,42.6528061 61.8293739,41.6618573 C66.2312307,40.6709086 69.3588154,36.7620197 69.36,32.25 L69.36,15.25 C69.349042,14.2802754 68.5597865,13.5 67.59,13.5 Z" id="Shape" fill="#030047"></path>
                <path d="M175.06,32.1 L175.06,32 C175.064972,31.9300883 175.064972,31.8599117 175.06,31.79 C174.852882,27.2641632 171.525185,23.491797 167.060555,22.7216153 C162.595926,21.9514337 158.196652,24.3908404 156.485149,28.5857008 C154.773646,32.7805613 156.210807,37.6012334 159.939939,40.1741063 C163.669071,42.7469793 168.685947,42.379199 172,39.29 C172.514186,38.8963911 172.772389,38.2534146 172.673238,37.6135052 C172.574086,36.9735957 172.133409,36.4389077 171.524218,36.2193612 C170.915026,35.9998147 170.234571,36.130458 169.75,36.56 L169.75,36.56 C167.806356,38.4999764 164.807235,38.9049039 162.41871,37.5498369 C160.030185,36.19477 158.839143,33.4126636 159.507233,30.7490356 C160.175324,28.0854076 162.538389,26.194741 165.283697,26.1273404 C168.029005,26.0599398 170.482003,27.8323662 171.28,30.46 L164.81,30.46 C163.881268,30.5297584 163.163323,31.3036523 163.163323,32.235 C163.163323,33.1663477 163.881268,33.9402416 164.81,34.01 L173.07,34.01 C174.090647,34.016769 174.952645,33.2539008 175.070162,32.24 L175.070162,32.24 L175.070162,32.72 C175.070162,32.56 175.070162,32.39 175.070162,32.23 C175.070966,32.1864428 175.067616,32.1428971 175.06,32.1 Z" id="Path" fill="#030047"></path>
                <path d="M209.52,18.6500283 C210.240839,18.6540497 210.892954,18.2229437 211.171618,17.5581341 C211.450282,16.8933246 211.300471,16.1260805 210.792191,15.6149285 C210.28391,15.1037765 209.517522,14.9496454 208.851153,15.2245594 C208.184784,15.4994734 207.75,16.1491496 207.75,16.87 C207.75,17.8491748 208.540841,18.644499 209.52,18.6500283 L209.52,18.6500283 Z" id="Path" fill="#030047"></path>
                <path d="M209.52,19.74 C208.544728,19.7454638 207.755464,20.5347282 207.75,21.51 L207.75,40.12 C207.69998,40.7859495 208.026929,41.4238677 208.596759,41.7721278 C209.166588,42.120388 209.883412,42.120388 210.453241,41.7721278 C211.023071,41.4238677 211.35002,40.7859495 211.3,40.12 L211.3,21.51 C211.294499,20.5308406 210.499175,19.74 209.52,19.74 L209.52,19.74 Z" id="Path" fill="#030047"></path>
                <path d="M195.06,16.63 C194.897225,16.1850837 194.561955,15.8245785 194.13,15.63 C193.923068,15.5428999 193.703718,15.4889061 193.48,15.47 L193.25,15.47 C193.029281,15.4875393 192.813006,15.541608 192.61,15.63 C192.173576,15.8214367 191.834101,16.1825799 191.67,16.63 L181.25,39 C180.930494,39.5820943 180.961553,40.2936379 181.330564,40.8456784 C181.699575,41.3977188 182.345183,41.6984677 183.00521,41.6257931 C183.665238,41.5531185 184.229942,41.1191042 184.47,40.5 L193.37,21.44 L197.59,30.5 L192.65,30.5 C191.721268,30.5697584 191.003323,31.3436523 191.003323,32.275 C191.003323,33.2063477 191.721268,33.9802416 192.65,34.05 L199.26,34.05 L202.26,40.5 C202.500058,41.1191042 203.064762,41.5531185 203.72479,41.6257931 C204.384817,41.6984677 205.030425,41.3977188 205.399436,40.8456784 C205.768447,40.2936379 205.799506,39.5820943 205.48,39 L195.06,16.63 Z" id="Path" fill="#030047"></path>
                <path d="M177.33,38.5099717 C176.60915,38.5100114 175.959473,38.9447844 175.684559,39.6111533 C175.409645,40.2775223 175.563777,41.0439102 176.074928,41.5521906 C176.58608,42.0604709 177.353325,42.2102819 178.018134,41.9316181 C178.682944,41.6529544 179.11405,41.000839 179.110028,40.28 C179.110028,39.8088291 178.922154,39.3571005 178.588048,39.0248722 C178.253943,38.6926438 177.801163,38.507338 177.33,38.5099717 Z" id="Path" fill="#030047"></path>
                <path d="M20,32 C19.1483657,31.9874301 18.3158518,31.7456211 17.59,31.3 C17.3935039,31.1695981 17.2815027,30.9442723 17.296186,30.7089007 C17.3108694,30.4735292 17.4500066,30.2638703 17.661186,30.1589007 C17.8723655,30.0539311 18.1235039,30.0695981 18.32,30.2 C19.3000154,30.8205918 20.5499846,30.8205918 21.53,30.2 C21.8350816,30.008369 22.2370856,30.0923039 22.44,30.39 C22.6392265,30.691463 22.5589934,31.097086 22.26,31.3 C21.5944859,31.7558834 20.8066838,31.9998929 20,32 L20,32 Z" id="Path" fill="#F0BA24"></path>
            </g>
        </g>
    </g>
</svg>