<svg id="Layer_1" data-name="Layer 1" xmlns="http://www.w3.org/2000/svg" xmlns:xlink="http://www.w3.org/1999/xlink" viewBox="0 0 476.4 589.01"><defs><style>.cls-1{fill:#fff;}.cls-2{fill:#f8ac59;}.cls-3{fill:url(#linear-gradient);}.cls-4{fill:url(#linear-gradient-2);}.cls-5{fill:url(#linear-gradient-3);}.cls-6{fill:url(#linear-gradient-4);}.cls-7{fill:url(#linear-gradient-5);}</style><linearGradient id="linear-gradient" x1="227.35" y1="485.45" x2="227.35" y2="477.43" gradientUnits="userSpaceOnUse"><stop offset="0.05" stop-color="#ffd65e"/><stop offset="0.1" stop-color="#fed15d"/><stop offset="0.39" stop-color="#fbbd5b"/><stop offset="0.68" stop-color="#f9b059"/><stop offset="0.95" stop-color="#f8ac59"/></linearGradient><linearGradient id="linear-gradient-2" x1="232.56" y1="615.01" x2="232.56" y2="253.33" xlink:href="#linear-gradient"/><linearGradient id="linear-gradient-3" x1="439.79" y1="606.8" x2="439.79" y2="253.33" gradientUnits="userSpaceOnUse"><stop offset="0.05" stop-color="#ff7240"/><stop offset="0.23" stop-color="#fc8749"/><stop offset="0.48" stop-color="#fa9b52"/><stop offset="0.72" stop-color="#f9a857"/><stop offset="0.95" stop-color="#f8ac59"/></linearGradient><linearGradient id="linear-gradient-4" x1="368.07" y1="403.32" x2="368.07" y2="371.36" gradientTransform="translate(242.98 -132.14) rotate(30)" gradientUnits="userSpaceOnUse"><stop offset="0.05" stop-color="#ff7240"/><stop offset="0.95" stop-color="#f8ac59"/></linearGradient><linearGradient id="linear-gradient-5" x1="273.3" y1="403.32" x2="273.3" y2="371.36" gradientTransform="translate(230.29 -84.76) rotate(30)" xlink:href="#linear-gradient-4"/></defs><title>로고심볼만_흰얼굴</title><circle class="cls-1" cx="237.51" cy="361" r="204"/><path class="cls-2" d="M488.1,210.85c-54.5-63-108-130.73-139.35-171.11a35.51,35.51,0,0,0-56.12,0C261.29,80.13,207.77,147.8,153.28,210.85c-96.3,111.42-92.46,242.36,0,334.82a236.75,236.75,0,0,0,334.82,0C580.55,453.21,584.4,322.27,488.1,210.85ZM340.78,512.46A16.52,16.52,0,0,0,327.33,534l12.53,38.23L232.32,485.45c-32.7-23.86-53.68-60.63-53.68-101.91,0-71.91,63.6-130.21,142.05-130.21s142.05,58.3,142.05,130.21C462.74,449.2,409.72,503.52,340.78,512.46Z" transform="translate(-82.49 -26)"/><path class="cls-3" d="M232.31,485.45l-9.94-8C225.56,480.23,228.86,482.93,232.31,485.45Z" transform="translate(-82.49 -26)"/><path class="cls-4" d="M222.38,477.43l-1.24-1,1.24,1c-26.93-23.69-43.74-57-43.74-93.89,0-71.91,63.6-130.21,142.05-130.21H121.9c-62.59,101-49.55,211.41,31.37,292.34A237,237,0,0,0,382.64,606.8L232.31,485.45C228.86,482.93,225.56,480.23,222.38,477.43Z" transform="translate(-82.49 -26)"/><path class="cls-5" d="M382.64,606.8A235.67,235.67,0,0,0,488.1,545.67c80.93-80.93,94-191.34,31.37-292.34H320.69c78.45,0,142.05,58.3,142.05,130.21,0,65.66-53,120-122,128.92A16.52,16.52,0,0,0,327.33,534l12.53,38.23Z" transform="translate(-82.49 -26)"/><circle class="cls-6" cx="368.07" cy="387.34" r="15.98" transform="translate(-226.84 209.93) rotate(-30)"/><circle class="cls-7" cx="273.3" cy="387.34" r="15.98" transform="translate(-239.54 162.55) rotate(-30)"/></svg>