<svg xmlns="http://www.w3.org/2000/svg" viewBox="0 0 39.13 48.33"><defs><style>.cls-1{fill:#fff;}.cls-2{fill:#f0ba24;}</style></defs><g id="레이어_2" data-name="레이어 2"><g id="레이어_1-2" data-name="레이어 1"><circle class="cls-1" cx="18.98" cy="31.06" r="14.75"/><path class="cls-2" d="M18,42.29l-5.68-4.58c-.3-.22-.59-.47-.86-.71L11,36.58c-.13-.13-.27-.26-.38-.39a3.4,3.4,0,0,1-.38-.47c-.12-.15-.24-.28-.35-.43a5.72,5.72,0,0,1-.32-.48l-.31-.49c-.09-.16-.19-.32-.27-.48s-.18-.37-.26-.57-.14-.32-.2-.48-.13-.43-.2-.64-.1-.31-.14-.46-.11-.5-.15-.76,0-.26-.07-.39a9.23,9.23,0,0,1-.08-1.18c0-5.17,4-9.48,9.32-10.48a12.92,12.92,0,0,1,2.35-.22,12.11,12.11,0,0,1,9,3.89,10.13,10.13,0,0,1,2.66,6.81,9.92,9.92,0,0,1-1.68,5.52,9.32,9.32,0,0,1-1.21,1.51c-.22.23-.46.46-.7.68a12.09,12.09,0,0,1-6.43,2.87,1.35,1.35,0,0,0-1.1,1.77l1,3.15Zm17.71-2.45c.14-.19.26-.38.38-.57s.41-.61.58-.92.23-.41.34-.61.33-.62.48-.93.19-.42.27-.64.26-.65.38-1,.15-.4.21-.61c.12-.37.21-.72.3-1.09.05-.17.09-.36.14-.53A15.16,15.16,0,0,0,39,31.33v0c.06-.55.1-1.12.11-1.68,0-.18,0-.37,0-.55,0-.38,0-.76,0-1.15L39,27.25c0-.36-.09-.7-.15-1.06l-.14-.69c-.07-.35-.16-.69-.25-1s-.13-.46-.2-.69-.23-.7-.37-1.06-.16-.44-.25-.65c-.16-.38-.33-.76-.52-1.14l-.26-.57c-.28-.54-.58-1.08-.91-1.61l-.05-.07a27.24,27.24,0,0,0-2.58-3.49C28.84,10,24.45,4.45,21.87,1.13a2.9,2.9,0,0,0-4.6,0C14.7,4.45,10.3,10,5.82,15.18a26.33,26.33,0,0,0-2.58,3.49l-.05.07c-.33.53-.63,1.07-.91,1.61-.09.17-.17.36-.26.55-.19.38-.36.76-.52,1.14-.09.22-.18.44-.26.66S1,23.4.88,23.76s-.14.46-.2.69-.18.69-.25,1l-.14.69c-.06.36-.12.7-.15,1.06s-.06.44-.07.65a11.25,11.25,0,0,0,0,1.16c0,.18,0,.35,0,.54a15.62,15.62,0,0,0,.1,1.68v0a15.38,15.38,0,0,0,.27,1.63,5.18,5.18,0,0,0,.14.53c.09.36.18.73.3,1.09s.13.41.2.61.25.66.38,1,.19.43.28.63.3.63.47.94.22.41.35.61.38.62.57.92.25.38.38.56c.23.34.49.66.75,1,.13.15.24.31.37.46.39.47.82.93,1.27,1.38a19.31,19.31,0,0,0,13.74,5.7c.55,0,1.1,0,1.66-.08l.44,0c.48-.06,1-.12,1.45-.21l.22,0c.44-.1.88-.19,1.32-.32h0a1.61,1.61,0,0,0,.29-.09l.37-.11c.48-.15.95-.31,1.42-.5l.19-.07c.52-.2,1-.45,1.52-.7l.36-.19c.47-.26.93-.52,1.38-.82a.53.53,0,0,1,.1-.06c.47-.31.94-.66,1.4-1l.32-.26c.45-.38.9-.77,1.31-1.19s.87-.91,1.27-1.37c.13-.15.24-.31.37-.46Q35.32,40.34,35.68,39.84Z"/><path class="cls-2" d="M23.65,27.2A1.31,1.31,0,1,0,25,29.48a1.31,1.31,0,0,0,.48-1.79A1.3,1.3,0,0,0,23.65,27.2Z"/><path class="cls-2" d="M14.55,27.2a1.31,1.31,0,1,0,1.31,2.28,1.31,1.31,0,0,0,.48-1.79A1.29,1.29,0,0,0,14.55,27.2Z"/><path class="cls-2" d="M20,32a4.74,4.74,0,0,1-2.41-.7.66.66,0,0,1,.73-1.1,3,3,0,0,0,3.21,0,.67.67,0,0,1,.91.19.66.66,0,0,1-.18.91A4,4,0,0,1,20,32Z"/></g></g></svg>